<?xml version="1.0" encoding="utf-8" standalone="no"?><!DOCTYPE svg PUBLIC "-//W3C//DTD SVG 20010904//EN" "http://www.w3.org/TR/2001/REC-SVG-20010904/DTD/svg10.dtd"><svg xmlns="http://www.w3.org/2000/svg" width="1034" height="1279" xmlns:xlink="http://www.w3.org/1999/xlink"><source><![CDATA[Product->Web API: Http Request
Note right of Product: POST \n/127.0.0.1:5000/products\n{id:12, prodcutId:123, name:"Candles", price:12.99, quantity:10}
Web API->Data Access: Create Product
Data Access->DB: Insert Product
DB->Data Access: Return Code
Data Access->Web API: Return Code 
Web API->Product: Http Response
Note right of Product: {<product1>}

Product->Web API: Http Request
Note right of Product: GET \n/127.0.0.1:5000/products\n
Web API->Data Access: Get Products
Data Access->DB: Select All Products
DB->Data Access: Return Code
Data Access->Web API: Return Code
Web API->Product: Http Response
Note right of Product: {[<All Products>]}

Product->Web API: Http Request
Web API->Data Access: Delete Products
Note right of Product: DELETE \n/127.0.0.1:5000/products\n
Data Access->DB: Delete All Products
DB->Data Access: Return Code
Data Access->Web API: Return Code
Web API->Product: Http Response
Note right of Product: ]]></source><desc></desc><defs><marker viewBox="0 0 5 5" markerWidth="5" markerHeight="5" orient="auto" refX="5" refY="2.5" id="markerArrowBlock"><path d="M 0 0 L 5 2.5 L 0 5 z"></path></marker><marker viewBox="0 0 9.6 16" markerWidth="4" markerHeight="16" orient="auto" refX="9.6" refY="8" id="markerArrowOpen"><path d="M 9.6,8 1.92,16 0,13.7 5.76,8 0,2.286 1.92,0 9.6,8 z"></path></marker></defs><g class="title"></g><g class="actor"><path d="M10,20C55.1,16.3 87.3,23.7 102.1,20.0C103.8,39.5 100.4,26.8 102.1,62.5C67.4,66.2 24.7,58.8 10.0,62.5C11.7,52.3 8.3,47.1 10.0,20.0" stroke="#000000" fill="#ffffff" style="stroke-width: 2;"></path><text x="20" y="44" style="font-size: 16px; font-family: danielbd;"><tspan x="20">Product</tspan></text></g><g class="actor"><path d="M10,1216.8000030517578C32.1,1213.1 40.8,1220.5 102.1,1216.8C103.8,1230.9 100.4,1252.5 102.1,1259.3C87.3,1263.0 27.5,1255.6 10.0,1259.3C8.3,1227.0 11.7,1229.1 10.0,1216.8" stroke="#000000" fill="#ffffff" style="stroke-width: 2;"></path><text x="20" y="1240.8000030517578" style="font-size: 16px; font-family: danielbd;"><tspan x="20">Product</tspan></text></g><path d="M56.0,62.5C102.2,638.9 9.9,717.1 56.0,1216.8" stroke="#000000" fill="none" style="stroke-width: 2;"></path><g class="actor"><path d="M579.734375,20C653.9,16.5 607.8,23.5 668.1,20.0C669.8,40.5 666.4,39.0 668.1,62.5C640.7,59.0 645.1,66.0 579.7,62.5C578.0,32.1 581.4,30.2 579.7,20.0" stroke="#000000" fill="#ffffff" style="stroke-width: 2;"></path><text x="589.734375" y="44" style="font-size: 16px; font-family: danielbd;"><tspan x="589.734375">Web API</tspan></text></g><g class="actor"><path d="M579.734375,1216.8000030517578C653.9,1220.3 616.8,1213.3 668.1,1216.8C669.8,1227.0 666.4,1223.6 668.1,1259.3C634.9,1255.8 640.4,1262.8 579.7,1259.3C581.4,1252.5 578.0,1223.6 579.7,1216.8" stroke="#000000" fill="#ffffff" style="stroke-width: 2;"></path><text x="589.734375" y="1240.8000030517578" style="font-size: 16px; font-family: danielbd;"><tspan x="589.734375">Web API</tspan></text></g><path d="M623.9,62.5C670.1,247.2 577.7,1004.6 623.9,1216.8" stroke="#000000" fill="none" style="stroke-width: 2;"></path><g class="actor"><path d="M722.6015625,20C760.7,14.9 822.2,25.1 848.9,20.0C850.6,45.9 847.2,26.8 848.9,62.5C828.7,57.4 801.1,67.6 722.6,62.5C724.3,30.2 720.9,38.5 722.6,20.0" stroke="#000000" fill="#ffffff" style="stroke-width: 2;"></path><text x="732.6015625" y="44" style="font-size: 16px; font-family: danielbd;"><tspan x="732.6015625">Data Access</tspan></text></g><g class="actor"><path d="M722.6015625,1216.8000030517578C828.7,1221.9 809.4,1211.7 848.9,1216.8C850.6,1227.3 847.2,1243.5 848.9,1259.3C815.4,1264.4 772.6,1254.2 722.6,1259.3C724.3,1252.5 720.9,1249.1 722.6,1216.8" stroke="#000000" fill="#ffffff" style="stroke-width: 2;"></path><text x="732.6015625" y="1240.8000030517578" style="font-size: 16px; font-family: danielbd;"><tspan x="732.6015625">Data Access</tspan></text></g><path d="M785.7,62.5C739.6,339.5 831.9,727.4 785.7,1216.8" stroke="#000000" fill="none" style="stroke-width: 2;"></path><g class="actor"><path d="M951.1484375,20C991.6,17.9 995.8,22.1 1004.3,20.0C1002.6,55.7 1006.0,26.8 1004.3,62.5C980.3,64.6 995.8,60.4 951.1,62.5C949.4,55.7 952.8,26.8 951.1,20.0" stroke="#000000" fill="#ffffff" style="stroke-width: 2;"></path><text x="961.1484375" y="44" style="font-size: 16px; font-family: danielbd;"><tspan x="961.1484375">DB</tspan></text></g><g class="actor"><path d="M951.1484375,1216.8000030517578C970.6,1218.9 995.8,1214.7 1004.3,1216.8C1006.0,1227.0 1002.6,1245.1 1004.3,1259.3C995.8,1261.4 959.7,1257.2 951.1,1259.3C952.8,1244.2 949.4,1249.1 951.1,1216.8" stroke="#000000" fill="#ffffff" style="stroke-width: 2;"></path><text x="961.1484375" y="1240.8000030517578" style="font-size: 16px; font-family: danielbd;"><tspan x="961.1484375">DB</tspan></text></g><path d="M977.7,62.5C931.6,247.2 1023.9,579.5 977.7,1216.8" stroke="#000000" fill="none" style="stroke-width: 2;"></path><g class="signal"><text x="280.62890625" y="90.25" style="font-size: 16px; font-family: danielbd;"><tspan x="280.62890625">Http Request</tspan></text><path d="M56.0,105.0C239.6,127.7 509.3,82.3 623.9,105.0" stroke="#000000" fill="none" style="stroke-width: 2; marker-end: url(&quot;#markerArrowBlock&quot;);"></path></g><g class="note"><path d="M76.03125,125C202.7,103.9 222.6,146.1 603.9,125.0C601.1,142.0 606.7,150.6 603.9,195.9C519.4,174.8 477.2,217.0 76.0,195.9C78.9,153.1 73.2,146.5 76.0,125.0" stroke="#000000" fill="#ffffff" style="stroke-width: 2;"></path><text x="81.03125" y="144" style="font-size: 16px; font-family: danielbd;"><tspan x="81.03125">POST</tspan><tspan dy="1.2em" x="81.03125">/127.0.0.1:5000/products</tspan><tspan dy="1.2em" x="81.03125">{id:12, prodcutId:123, name:"Candles", price:12.99, quantity:10}</tspan></text></g><g class="signal"><text x="634.50390625" y="223.6500015258789" style="font-size: 16px; font-family: danielbd;"><tspan x="634.50390625">Create Product</tspan></text><path d="M623.9,238.4C649.8,244.9 759.8,231.9 785.7,238.4" stroke="#000000" fill="none" style="stroke-width: 2; marker-end: url(&quot;#markerArrowBlock&quot;);"></path></g><g class="signal"><text x="817.953125" y="266.1500015258789" style="font-size: 16px; font-family: danielbd;"><tspan x="817.953125">Insert Product</tspan></text><path d="M785.7,280.9C834.5,273.2 947.0,288.6 977.7,280.9" stroke="#000000" fill="none" style="stroke-width: 2; marker-end: url(&quot;#markerArrowBlock&quot;);"></path></g><g class="signal"><text x="824.76171875" y="308.6500015258789" style="font-size: 16px; font-family: danielbd;"><tspan x="824.76171875">Return Code</tspan></text><path d="M977.7,323.4C931.7,315.7 850.5,331.1 785.7,323.4" stroke="#000000" fill="none" style="stroke-width: 2; marker-end: url(&quot;#markerArrowBlock&quot;);"></path></g><g class="signal"><text x="647.84375" y="351.1500015258789" style="font-size: 16px; font-family: danielbd;"><tspan x="647.84375">Return Code</tspan></text><path d="M785.7,365.9C649.8,359.4 759.8,372.4 623.9,365.9" stroke="#000000" fill="none" style="stroke-width: 2; marker-end: url(&quot;#markerArrowBlock&quot;);"></path></g><g class="signal"><text x="277.4921875" y="393.6500015258789" style="font-size: 16px; font-family: danielbd;"><tspan x="277.4921875">Http Response</tspan></text><path d="M623.9,408.4C404.9,385.7 146.9,431.1 56.0,408.4" stroke="#000000" fill="none" style="stroke-width: 2; marker-end: url(&quot;#markerArrowBlock&quot;);"></path></g><g class="note"><path d="M76.03125,428.4000015258789C123.2,433.0 150.7,423.8 191.8,428.4C190.5,451.2 193.1,436.2 191.8,460.9C151.6,456.3 103.8,465.5 76.0,460.9C77.3,438.0 74.7,455.7 76.0,428.4" stroke="#000000" fill="#ffffff" style="stroke-width: 2;"></path><text x="81.03125" y="447.4000015258789" style="font-size: 16px; font-family: danielbd;"><tspan x="81.03125">{&lt;product1&gt;}</tspan></text></g><g class="signal"><text x="280.62890625" y="488.6500015258789" style="font-size: 16px; font-family: danielbd;"><tspan x="280.62890625">Http Request</tspan></text><path d="M56.0,503.4C192.3,526.1 181.4,480.7 623.9,503.4" stroke="#000000" fill="none" style="stroke-width: 2; marker-end: url(&quot;#markerArrowBlock&quot;);"></path></g><g class="note"><path d="M76.03125,523.4000015258789C265.6,533.4 135.9,513.4 325.4,523.4C327.5,565.2 323.3,562.7 325.4,575.1C184.1,585.1 204.1,565.1 76.0,575.1C78.1,562.7 74.0,565.8 76.0,523.4" stroke="#000000" fill="#ffffff" style="stroke-width: 2;"></path><text x="81.03125" y="542.4000015258789" style="font-size: 16px; font-family: danielbd;"><tspan x="81.03125">GET</tspan><tspan dy="1.2em" x="81.03125">/127.0.0.1:5000/products</tspan><tspan dy="1.2em" x="81.03125"></tspan></text></g><g class="signal"><text x="644.078125" y="602.8500022888184" style="font-size: 16px; font-family: danielbd;"><tspan x="644.078125">Get Products</tspan></text><path d="M623.9,617.6C707.4,611.1 684.3,624.1 785.7,617.6" stroke="#000000" fill="none" style="stroke-width: 2; marker-end: url(&quot;#markerArrowBlock&quot;);"></path></g><g class="signal"><text x="798.76953125" y="645.3500022888184" style="font-size: 16px; font-family: danielbd;"><tspan x="798.73828125">Select All Products</tspan></text><path d="M785.7,660.1C848.2,667.8 889.9,652.4 977.7,660.1" stroke="#000000" fill="none" style="stroke-width: 2; marker-end: url(&quot;#markerArrowBlock&quot;);"></path></g><g class="signal"><text x="824.76171875" y="687.8500022888184" style="font-size: 16px; font-family: danielbd;"><tspan x="824.76171875">Return Code</tspan></text><path d="M977.7,702.6C818.5,710.3 902.8,694.9 785.7,702.6" stroke="#000000" fill="none" style="stroke-width: 2; marker-end: url(&quot;#markerArrowBlock&quot;);"></path></g><g class="signal"><text x="647.84375" y="730.3500022888184" style="font-size: 16px; font-family: danielbd;"><tspan x="647.84375">Return Code</tspan></text><path d="M785.7,745.1C653.1,751.6 759.8,738.6 623.9,745.1" stroke="#000000" fill="none" style="stroke-width: 2; marker-end: url(&quot;#markerArrowBlock&quot;);"></path></g><g class="signal"><text x="277.4921875" y="772.8500022888184" style="font-size: 16px; font-family: danielbd;"><tspan x="277.4921875">Http Response</tspan></text><path d="M623.9,787.6C429.9,810.3 192.3,764.9 56.0,787.6" stroke="#000000" fill="none" style="stroke-width: 2; marker-end: url(&quot;#markerArrowBlock&quot;);"></path></g><g class="note"><path d="M76.03125,807.6000022888184C168.3,801.0 115.5,814.2 240.5,807.6C239.2,818.0 241.8,815.4 240.5,840.1C214.2,846.7 178.0,833.5 76.0,840.1C74.7,821.4 77.3,812.8 76.0,807.6" stroke="#000000" fill="#ffffff" style="stroke-width: 2;"></path><text x="81.03125" y="826.6000022888184" style="font-size: 16px; font-family: danielbd;"><tspan x="81.03125">{[&lt;All Products&gt;]}</tspan></text></g><g class="signal"><text x="280.62890625" y="867.8500022888184" style="font-size: 16px; font-family: danielbd;"><tspan x="280.62890625">Http Request</tspan></text><path d="M56.0,882.6C442.0,859.9 500.3,905.3 623.9,882.6" stroke="#000000" fill="none" style="stroke-width: 2; marker-end: url(&quot;#markerArrowBlock&quot;);"></path></g><g class="signal"><text x="633.8984375" y="910.3500022888184" style="font-size: 16px; font-family: danielbd;"><tspan x="633.8984375">Delete Products</tspan></text><path d="M623.9,925.1C742.2,931.6 746.9,918.6 785.7,925.1" stroke="#000000" fill="none" style="stroke-width: 2; marker-end: url(&quot;#markerArrowBlock&quot;);"></path></g><g class="note"><path d="M76.03125,945.1000022888184C260.1,955.1 260.6,935.1 325.4,945.1C327.5,968.8 323.3,976.6 325.4,996.8C149.9,1006.8 250.6,986.8 76.0,996.8C78.1,984.4 74.0,988.5 76.0,945.1" stroke="#000000" fill="#ffffff" style="stroke-width: 2;"></path><text x="81.03125" y="964.1000022888184" style="font-size: 16px; font-family: danielbd;"><tspan x="81.03125">DELETE</tspan><tspan dy="1.2em" x="81.03125">/127.0.0.1:5000/products</tspan><tspan dy="1.2em" x="81.03125"></tspan></text></g><g class="signal"><text x="795.734375" y="1024.5500030517578" style="font-size: 16px; font-family: danielbd;"><tspan x="795.734375">Delete All Products</tspan></text><path d="M785.7,1039.3C880.5,1047.0 896.5,1031.6 977.7,1039.3" stroke="#000000" fill="none" style="stroke-width: 2; marker-end: url(&quot;#markerArrowBlock&quot;);"></path></g><g class="signal"><text x="824.76171875" y="1067.0500030517578" style="font-size: 16px; font-family: danielbd;"><tspan x="824.76171875">Return Code</tspan></text><path d="M977.7,1081.8C930.1,1089.5 925.9,1074.1 785.7,1081.8" stroke="#000000" fill="none" style="stroke-width: 2; marker-end: url(&quot;#markerArrowBlock&quot;);"></path></g><g class="signal"><text x="647.84375" y="1109.5500030517578" style="font-size: 16px; font-family: danielbd;"><tspan x="647.84375">Return Code</tspan></text><path d="M785.7,1124.3C684.6,1117.8 746.9,1130.8 623.9,1124.3" stroke="#000000" fill="none" style="stroke-width: 2; marker-end: url(&quot;#markerArrowBlock&quot;);"></path></g><g class="signal"><text x="277.4921875" y="1152.0500030517578" style="font-size: 16px; font-family: danielbd;"><tspan x="277.4921875">Http Response</tspan></text><path d="M623.9,1166.8C349.5,1144.1 192.3,1189.5 56.0,1166.8" stroke="#000000" fill="none" style="stroke-width: 2; marker-end: url(&quot;#markerArrowBlock&quot;);"></path></g><g class="note"><path d="M76.03125,1186.8000030517578C79.3,1187.2 80.5,1186.4 86.0,1186.8C86.4,1193.8 85.6,1190.4 86.0,1196.8C84.4,1196.4 77.8,1197.2 76.0,1196.8C76.4,1190.2 75.6,1195.2 76.0,1186.8" stroke="#000000" fill="#ffffff" style="stroke-width: 2;"></path><text x="81.03125" y="1191.8000030517578" style="font-size: 16px; font-family: danielbd;"><tspan x="81.03125"></tspan></text></g></svg>